<svg xmlns="http://www.w3.org/2000/svg" width="40" height="40" fill="#666" viewBox="0 0 128 128"><g><path d="M115.247,48.511H102.339V43.258a1.751,1.751,0,0,0-1.75-1.75H16.554a1.751,1.751,0,0,0-1.75,1.75v22.1a40.8,40.8,0,0,0,24.257,37.25H1.75A1.751,1.751,0,0,0,0,104.358a10.662,10.662,0,0,0,10.65,10.65h95.843a10.662,10.662,0,0,0,10.65-10.65,1.751,1.751,0,0,0-1.75-1.75H78.082a40.991,40.991,0,0,0,17.685-15.1h19.48A12.765,12.765,0,0,0,128,74.758v-13.5A12.765,12.765,0,0,0,115.247,48.511Zm-12.908,11.5h12.908a1.252,1.252,0,0,1,1.25,1.25v13.5a1.252,1.252,0,0,1-1.25,1.25H100.918a40.636,40.636,0,0,0,1.421-10.65Zm11.087,46.1a7.161,7.161,0,0,1-6.933,5.4H10.65a7.161,7.161,0,0,1-6.933-5.4H113.426Zm-51.837-3.5H55.554A37.292,37.292,0,0,1,18.3,65.358V45.008H98.839v20.35A37.292,37.292,0,0,1,61.589,102.608ZM124.5,74.758a9.261,9.261,0,0,1-9.25,9.25H97.8a40.388,40.388,0,0,0,2-4.5h15.445a4.756,4.756,0,0,0,4.75-4.75v-13.5a4.756,4.756,0,0,0-4.75-4.75H102.339v-4.5h12.908a9.261,9.261,0,0,1,9.25,9.25Z"/><path d="M40.99,33.875a1.75,1.75,0,0,0,3.5,0,7.729,7.729,0,0,1,.847-3.755,11.124,11.124,0,0,0,1.153-5.185,11.122,11.122,0,0,0-1.153-5.184A7.729,7.729,0,0,1,44.49,16a7.714,7.714,0,0,1,.847-3.751A11.116,11.116,0,0,0,46.49,7.063a1.75,1.75,0,0,0-3.5,0,7.714,7.714,0,0,1-.847,3.751A11.1,11.1,0,0,0,40.99,16a11.114,11.114,0,0,0,1.153,5.185,7.724,7.724,0,0,1,.847,3.754,7.726,7.726,0,0,1-.847,3.755A11.118,11.118,0,0,0,40.99,33.875Z"/><path d="M55.821,33.875a1.75,1.75,0,0,0,3.5,0,7.729,7.729,0,0,1,.847-3.755,11.111,11.111,0,0,0,1.153-5.185,11.11,11.11,0,0,0-1.153-5.184A7.729,7.729,0,0,1,59.321,16a7.714,7.714,0,0,1,.847-3.751,11.1,11.1,0,0,0,1.153-5.182,1.75,1.75,0,0,0-3.5,0,7.714,7.714,0,0,1-.847,3.751A11.116,11.116,0,0,0,55.821,16a11.127,11.127,0,0,0,1.153,5.185,7.724,7.724,0,0,1,.847,3.754,7.726,7.726,0,0,1-.847,3.755A11.13,11.13,0,0,0,55.821,33.875Z"/><path d="M70.653,33.875a1.75,1.75,0,0,0,3.5,0A7.716,7.716,0,0,1,75,30.12a11.126,11.126,0,0,0,1.152-5.185A11.124,11.124,0,0,0,75,19.751,7.716,7.716,0,0,1,74.153,16,7.7,7.7,0,0,1,75,12.245a11.118,11.118,0,0,0,1.152-5.182,1.75,1.75,0,0,0-3.5,0,7.714,7.714,0,0,1-.847,3.751A11.116,11.116,0,0,0,70.653,16a11.127,11.127,0,0,0,1.153,5.185,7.724,7.724,0,0,1,.847,3.754,7.726,7.726,0,0,1-.847,3.755A11.13,11.13,0,0,0,70.653,33.875Z"/></g></svg>