<svg version="1.1" id="Layer_1" fill="#666" xmlns="http://www.w3.org/2000/svg" xmlns:xlink="http://www.w3.org/1999/xlink" x="0px" y="0px"
	 viewBox="0 0 64 64" enable-background="new 0 0 64 64" xml:space="preserve">
<g id="Alcohol_2_">
	<path d="M22.6580334,21.7616997V0.9961c0-0.5527-0.4472008-1-1-1h-8.2494879c-0.5522118,0-1,0.4473-1,1v20.8495998
		c-4.1982117,2.0088005-6.875,6.2305012-6.875,10.9346008v24.7588005c0,1.7235985,0.6700001,3.3456993,1.8871884,4.5663986
		c1.2178111,1.2187004,2.8369002,1.8906021,4.5590997,1.8906021h11.0863991c3.5664005,0,6.4678001-2.9062996,6.4678001-6.4775009
		V32.5419998c0-3.1709003-1.2334003-6.1543007-3.4736004-8.3994007
		C25.0662327,23.1474991,23.9237328,22.3486004,22.6580334,21.7616997z M14.4085455,1.9960999h6.2494879v4.8887h-6.2494879
		V1.9960999z M27.5340328,52.3516006H14.3778334V36.5136986h13.1561995V52.3516006z M27.5340328,34.5136986H13.3778334
		c-0.5522881,0-1,0.4472008-1,1v17.8379021c0,0.5527,0.4477119,1,1,1h14.1561995v3.1669998
		c0,2.4687004-2.0038986,4.4775009-4.4678001,4.4775009H11.9798336c-1.1875,0-2.3042002-0.4629021-3.1434994-1.3036995
		c-0.8399005-0.8428001-1.3027887-1.9629021-1.3027887-3.1533012V32.7803001c0-4.1191998,2.4555883-7.7929993,6.2563877-9.3603992
		c0.3745003-0.155201,0.6186123-0.5195007,0.6186123-0.9248009V8.8848h6.2494879v13.5361004
		c0,0.4102001,0.2509995,0.7792988,0.6319008,0.9296989c1.2646103,0.5,2.3934994,1.2422009,3.3554001,2.205101
		c1.8632984,1.8671989,2.8886986,4.3486004,2.8886986,6.9862995V34.5136986z"/>
	<path d="M52.6444321,52.9746017c0.4648018,0,0.8681145-0.3203011,0.9736023-0.7723999l4.8223-20.6670017
		c0.0692978-0.2978992-0.0010033-0.6103992-0.1905022-0.8495998C58.0604324,30.4473,57.7713318,30.3076,57.4666328,30.3076
		H38.1776314c-0.3046989,0-0.5937996,0.1396999-0.7831993,0.3780003c-0.1894989,0.2392006-0.2598,0.5517006-0.1904984,0.8495998
		l4.8223,20.6670017c0.1054993,0.4520988,0.5088005,0.7723999,0.9735985,0.7723999h3.8223v9.0136986h-6.1112976
		c-0.5567017,0-1.0078011,0.4511986-1.0078011,1.0078011c0,0.5565987,0.4510994,1.0077972,1.0078011,1.0077972h14
		c0.5565987,0,1.0077972-0.4511986,1.0077972-1.0077972c0-0.5566025-0.4511986-1.0078011-1.0077972-1.0078011h-5.8887024v-9.0136986
		H52.6444321z M43.7938347,50.9746017l-4.3565025-18.6670036h16.7695999l-4.3564987,18.6670036H43.7938347z"/>
</g>
</svg>