<svg id="Layer_1" enable-background="new 0 0 100 100" height="100" viewBox="0 0 100 100" width="100" fill="#666" xmlns="http://www.w3.org/2000/svg"><g><path d="m69.99 74.32c-.93-.6-2.17-.32-2.76.61-4.44 6.93-12 11.07-20.23 11.07-13.23 0-24-10.77-24-24 0-9.72 5.8-18.42 14.77-22.16 1.02-.42 1.5-1.6 1.08-2.62-.43-1.02-1.6-1.5-2.62-1.08-10.47 4.37-17.23 14.52-17.23 25.86 0 15.44 12.56 28 28 28 9.6 0 18.42-4.83 23.6-12.92.59-.93.32-2.17-.61-2.76z"/><path d="m71.17 55.97c-.36-.6-1.01-.97-1.71-.97h-18.86l-2.76-16h16.07c1.1 0 2-.9 2-2s-.9-2-2-2h-16.76l-1.09-6.3c3.37-.94 5.85-4.03 5.85-7.7 0-4.41-3.59-8-8-8s-8 3.59-8 8c0 3.76 2.61 6.91 6.1 7.76l4.93 28.58c.17.96 1 1.66 1.97 1.66h19.41l11.42 19.03c.38.62 1.04.97 1.72.97.35 0 .71-.09 1.03-.29.95-.57 1.25-1.8.69-2.74zm-31.26-34.97c0-2.21 1.79-4 4-4s4 1.79 4 4-1.79 4-4 4-4-1.79-4-4z"/></g></svg>