<svg version="1.1" id="Capa_1" xmlns="http://www.w3.org/2000/svg" xmlns:xlink="http://www.w3.org/1999/xlink" x="0px" y="0px"
	 viewBox="0 0 410.143 410.143" style="enable-background:new 0 0 410.143 410.143;" xml:space="preserve" fill="#666" width="100" height="100">
<g>
	<g>
		<path d="M35.202,63.112c-0.051-2.831-2.432-4.936-5.207-5.028c-2.826,0.051-5.079,2.381-5.033,5.212
			c0.087,5.089,0.328,10.214,0.712,15.232c0.205,2.678,2.447,4.721,5.1,4.721c0.128,0,0.261-0.005,0.394-0.015
			c2.821-0.215,4.931-2.673,4.716-5.494C35.514,72.927,35.284,68.007,35.202,63.112z"/>
	</g>
</g>
<g>
	<g>
		<path d="M41.044,111.384c-1.096-4.654-2.058-9.472-2.852-14.305c-0.461-2.79-3.077-4.659-5.878-4.224
			c-2.79,0.461-4.685,3.092-4.224,5.883c0.829,5.064,1.833,10.112,2.99,14.996c0.553,2.355,2.657,3.942,4.977,3.942
			c0.389,0,0.783-0.046,1.183-0.133C39.989,116.893,41.694,114.133,41.044,111.384z"/>
	</g>
</g>
<g>
	<g>
		<path d="M211.985,260.919c-4.674-1.69-9.334-3.4-13.967-5.135c-2.642-0.973-5.601,0.353-6.589,3c-0.993,2.652,0.353,5.601,3,6.589
			c4.664,1.746,9.359,3.466,14.065,5.176c0.579,0.205,1.167,0.307,1.746,0.307c2.094,0,4.06-1.295,4.813-3.374
			C216.015,264.82,214.643,261.886,211.985,260.919z"/>
	</g>
</g>
<g>
	<g>
		<path d="M277.731,284.522c-4.654-1.756-9.354-3.482-14.085-5.202c-2.652-0.942-5.591,0.415-6.559,3.072
			c-0.963,2.662,0.41,5.596,3.067,6.559c4.695,1.7,9.354,3.415,13.967,5.151c0.594,0.225,1.203,0.328,1.807,0.328
			c2.068,0,4.019-1.265,4.792-3.313C281.715,288.469,280.378,285.515,277.731,284.522z"/>
	</g>
</g>
<g>
	<g>
		<path d="M395.972,360.124c-2.729-4.28-5.893-8.494-9.411-12.518c-1.853-2.12-5.094-2.35-7.224-0.486
			c-2.13,1.859-2.35,5.094-0.492,7.224c3.18,3.635,6.036,7.434,8.489,11.279c0.973,1.536,2.632,2.371,4.321,2.371
			c0.942,0,1.894-0.261,2.749-0.799C396.792,365.674,397.493,362.51,395.972,360.124z"/>
	</g>
</g>
<g>
	<g>
		<path d="M51.724,143.527c-1.92-4.372-3.702-8.924-5.294-13.527c-0.922-2.667-3.84-4.081-6.513-3.164
			c-2.668,0.927-4.086,3.84-3.164,6.513c1.685,4.854,3.564,9.667,5.596,14.295c0.845,1.92,2.719,3.062,4.69,3.062
			c0.686,0,1.388-0.138,2.053-0.43C51.683,149.134,52.861,146.118,51.724,143.527z"/>
	</g>
</g>
<g>
	<g>
		<path d="M68.349,172.885c-2.785-3.917-5.432-8.003-7.859-12.155c-1.428-2.442-4.562-3.256-7.004-1.833
			c-2.442,1.423-3.267,4.562-1.838,7.004c2.586,4.413,5.396,8.766,8.366,12.928c0.998,1.403,2.575,2.15,4.173,2.15
			c1.029,0,2.063-0.312,2.964-0.952C69.455,178.389,69.992,175.189,68.349,172.885z"/>
	</g>
</g>
<g>
	<g>
		<path d="M117.757,218.484c-4.234-2.652-8.299-5.396-12.093-8.151c-2.284-1.654-5.489-1.162-7.148,1.132
			c-1.664,2.284-1.157,5.489,1.132,7.148c3.978,2.893,8.243,5.77,12.672,8.55c0.845,0.533,1.787,0.778,2.714,0.778
			c1.705,0,3.369-0.85,4.342-2.401C120.88,223.148,120.153,219.989,117.757,218.484z"/>
	</g>
</g>
<g>
	<g>
		<path d="M371.693,333.218c-3.784-3.144-7.916-6.257-12.288-9.262c-2.335-1.597-5.519-1.009-7.122,1.321
			c-1.603,2.33-1.014,5.514,1.316,7.122c4.122,2.831,8.008,5.76,11.556,8.699c0.957,0.794,2.115,1.178,3.267,1.178
			c1.469,0,2.929-0.63,3.942-1.848C374.172,338.246,373.869,335.02,371.693,333.218z"/>
	</g>
</g>
<g>
	<g>
		<path d="M310.335,297.639c-4.557-1.997-9.201-3.942-13.916-5.847c-2.632-1.065-5.606,0.205-6.666,2.826
			c-1.06,2.621,0.205,5.606,2.826,6.666c4.628,1.874,9.18,3.779,13.655,5.734c0.666,0.297,1.367,0.43,2.048,0.43
			c1.971,0,3.85-1.147,4.695-3.067C314.109,301.792,312.926,298.776,310.335,297.639z"/>
	</g>
</g>
<g>
	<g>
		<path d="M244.84,272.597l-14.121-4.992c-2.673-0.952-5.596,0.445-6.533,3.118c-0.942,2.668,0.456,5.591,3.118,6.528l14.111,4.992
			c0.568,0.2,1.147,0.297,1.71,0.297c2.109,0,4.081-1.311,4.823-3.41C248.895,276.468,247.503,273.544,244.84,272.597z"/>
	</g>
</g>
<g>
	<g>
		<path d="M179.53,248.656c-4.623-1.848-9.196-3.732-13.706-5.658c-2.591-1.137-5.612,0.092-6.717,2.688
			c-1.111,2.601,0.097,5.612,2.693,6.717c4.582,1.966,9.231,3.881,13.926,5.76c0.625,0.251,1.27,0.364,1.899,0.364
			c2.033,0,3.953-1.213,4.756-3.221C183.431,252.686,182.156,249.706,179.53,248.656z"/>
	</g>
</g>
<g>
	<g>
		<path d="M342.079,313.235c-4.219-2.371-8.745-4.756-13.445-7.091c-2.534-1.265-5.606-0.23-6.861,2.304
			c-1.26,2.534-0.225,5.606,2.309,6.866c4.547,2.258,8.919,4.567,12.989,6.851c0.794,0.445,1.654,0.655,2.499,0.655
			c1.792,0,3.528-0.942,4.47-2.616C345.423,317.74,344.547,314.622,342.079,313.235z"/>
	</g>
</g>
<g>
	<g>
		<path d="M147.862,234.878c-4.48-2.15-8.868-4.362-13.158-6.636c-2.493-1.341-5.601-0.384-6.927,2.12
			c-1.326,2.493-0.379,5.596,2.12,6.922c4.408,2.345,8.924,4.613,13.532,6.825c0.717,0.343,1.469,0.507,2.212,0.507
			c1.91,0,3.738-1.07,4.618-2.903C151.487,239.159,150.412,236.102,147.862,234.878z"/>
	</g>
</g>
<g>
	<g>
		<path d="M90.687,198.137c-3.569-3.282-7.004-6.728-10.225-10.25c-1.9-2.079-5.135-2.227-7.235-0.323
			c-2.089,1.905-2.237,5.146-0.328,7.235c3.415,3.738,7.076,7.404,10.87,10.885c0.983,0.901,2.222,1.347,3.456,1.347
			c1.388,0,2.765-0.558,3.773-1.659C92.915,203.288,92.771,200.052,90.687,198.137z"/>
	</g>
</g>
<g>
	<g>
		<path d="M407.416,386.359c-0.707-2.739-3.477-4.388-6.236-3.686c-2.739,0.707-4.383,3.502-3.681,6.236
			c1.229,4.777,2.038,9.789,2.411,14.915c0.2,2.693,2.442,4.751,5.105,4.751c0.123,0,0.251-0.005,0.379-0.015
			c2.821-0.205,4.941-2.657,4.736-5.473C409.709,397.351,408.798,391.719,407.416,386.359z"/>
	</g>
</g>
<g>
	<g>
		<path d="M37.317,30.344L58.652,9.009c2.002-2.002,2.002-5.238,0-7.24c-2.002-2.002-5.238-2.002-7.24,0L30.077,23.105L8.742,1.77
			c-2.002-2.002-5.238-2.002-7.24,0c-2.002,2.002-2.002,5.238,0,7.24l21.335,21.335L1.502,51.679c-2.002,2.002-2.002,5.238,0,7.24
			c0.998,0.998,2.309,1.5,3.62,1.5s2.621-0.502,3.62-1.5l21.335-21.335l21.335,21.335c0.998,0.998,2.309,1.5,3.62,1.5
			s2.621-0.502,3.62-1.5c2.002-2.002,2.002-5.238,0-7.24L37.317,30.344z"/>
	</g>
</g>
<g>
	<g>
		<path d="M400.852,223.333c1.004,1.004,2.314,1.51,3.63,1.51c1.306,0,2.611-0.497,3.615-1.49c2.002-1.997,2.012-5.233,0.015-7.24
			l-42.414-42.624v-27.515l35.154,35.323c1.004,1.004,2.314,1.51,3.63,1.51c1.306,0,2.611-0.497,3.615-1.49
			c2.002-1.997,2.012-5.233,0.015-7.24l-43.904-44.119c-1.925-1.93-5.335-1.93-7.26,0l-43.904,44.119
			c-1.997,2.007-1.987,5.243,0.015,7.24c2.012,2.007,5.253,1.987,7.245-0.02l35.154-35.323v27.515l-42.414,42.624
			c-1.997,2.007-1.987,5.243,0.015,7.24c2.012,2.002,5.253,1.987,7.245-0.02l35.154-35.323v27.515l-42.414,42.624
			c-1.997,2.007-1.987,5.243,0.015,7.24c2.012,2.002,5.253,1.987,7.245-0.021l35.154-35.323v57.805c0,2.831,2.294,5.12,5.12,5.12
			c2.826,0,5.12-2.289,5.12-5.12v-57.805l35.154,35.323c1.004,1.004,2.314,1.51,3.63,1.51c1.306,0,2.611-0.497,3.615-1.49
			c2.002-1.997,2.012-5.233,0.015-7.24l-42.414-42.624V188.01L400.852,223.333z"/>
	</g>
</g>
<g>
	<g>
		<path d="M261.332,95.153c1.003,1.004,2.314,1.51,3.63,1.51c1.306,0,2.611-0.497,3.615-1.49c2.002-1.997,2.012-5.233,0.015-7.24
			L226.178,45.31V17.79l35.154,35.323c1.003,1.003,2.314,1.51,3.63,1.51c1.306,0,2.611-0.497,3.615-1.49
			c2.002-1.997,2.012-5.233,0.015-7.24L224.688,1.775c-1.925-1.93-5.335-1.93-7.26,0l-43.904,44.119
			c-1.997,2.007-1.987,5.243,0.015,7.24c2.012,2.002,5.253,1.987,7.245-0.02l35.154-35.323v27.52l-42.414,42.624
			c-1.997,2.007-1.987,5.243,0.015,7.24c2.012,2.002,5.253,1.987,7.245-0.021l35.154-35.323v27.515l-42.414,42.624
			c-1.997,2.007-1.987,5.243,0.015,7.24c2.012,2.002,5.253,1.987,7.245-0.021l35.154-35.323v57.805c0,2.831,2.294,5.12,5.12,5.12
			c2.826,0,5.12-2.289,5.12-5.12v-57.805l35.154,35.323c1.003,1.004,2.314,1.51,3.63,1.51c1.306,0,2.611-0.497,3.615-1.49
			c2.002-1.997,2.012-5.233,0.015-7.24l-42.414-42.624V59.83L261.332,95.153z"/>
	</g>
</g>
<g>
	<g>
		<path d="M89.3,340.238c1.004,1.003,2.314,1.51,3.63,1.51c1.306,0,2.611-0.497,3.615-1.49c2.002-1.997,2.012-5.233,0.015-7.24
			l-42.414-42.624V262.88L89.3,298.213c1.004,1.003,2.314,1.51,3.63,1.51c1.306,0,2.611-0.497,3.615-1.49
			c2.002-1.997,2.012-5.233,0.015-7.24l-43.904-44.119c-1.925-1.93-5.335-1.93-7.26,0L1.492,290.993
			c-1.997,2.007-1.987,5.243,0.015,7.24c2.012,2.002,5.253,1.987,7.245-0.02l35.154-35.323v27.515L1.492,333.029
			c-1.997,2.007-1.987,5.243,0.015,7.24c2.012,2.002,5.253,1.987,7.245-0.021l35.154-35.323v27.52L1.492,375.059
			c-1.997,2.007-1.987,5.243,0.015,7.24c2.012,2.002,5.253,1.987,7.245-0.02l35.154-35.323v57.8c0,2.831,2.294,5.12,5.12,5.12
			c2.826,0,5.12-2.289,5.12-5.12v-57.8L89.3,382.278c1.004,1.004,2.314,1.51,3.63,1.51c1.306,0,2.611-0.497,3.615-1.49
			c2.002-1.997,2.012-5.233,0.015-7.24l-42.414-42.624v-27.52L89.3,340.238z"/>
	</g>
</g>
<g>
</g>
<g>
</g>
<g>
</g>
<g>
</g>
<g>
</g>
<g>
</g>
<g>
</g>
<g>
</g>
<g>
</g>
<g>
</g>
<g>
</g>
<g>
</g>
<g>
</g>
<g>
</g>
<g>
</g>
</svg>
