<svg version="1.1" id="Layer_1" xmlns="http://www.w3.org/2000/svg" xmlns:xlink="http://www.w3.org/1999/xlink" x="0px" y="0px" style="enable-background:new 0 0 200 50;" xml:space="preserve" viewBox="2.13 13.98 194.93 24.15">
<style type="text/css">
	.st0{fill:#BD9061;}
</style>
<g>
	<g>
		<g>
			<path class="st0" d="M195.7,26.6c0.7,0,1.6,0.7,1.3,1.8c-0.2,0.7-0.7,0.9-1.9,0.9c-1,0-3.6-1.3-3.6-1.3S194.3,26.6,195.7,26.6z"/>
			<path class="st0" d="M192.8,31.6c0.4,0.4,1.1,0.1,1.3-0.4c0.3-0.6,0.1-1.3-0.3-1.7c-0.6-0.5-1.6-0.9-2.8-1     C191.8,29.3,192.3,31.2,192.8,31.6z"/>
			<path class="st0" d="M192.8,24.6c0.5-0.4,1.2-0.3,1.5,0.1c0.3,0.4,0.2,1-0.3,1.4c-0.6,0.5-1.7,1.2-3.1,1.3     C191.9,26.6,192.2,25,192.8,24.6z"/>
		</g>
		<g>
			<path class="st0" d="M3.5,29.5c-0.7,0-1.6-0.7-1.3-1.8c0.2-0.7,0.7-0.9,1.9-0.9c1,0,3.6,1.3,3.6,1.3S4.8,29.5,3.5,29.5z"/>
			<path class="st0" d="M6.3,24.5c-0.4-0.4-1.1-0.1-1.3,0.4c-0.3,0.6-0.1,1.3,0.3,1.7c0.6,0.5,1.6,0.9,2.8,1     C7.3,26.8,6.8,24.9,6.3,24.5z"/>
			<path class="st0" d="M6.3,31.6c-0.5,0.4-1.2,0.3-1.5-0.1c-0.3-0.4-0.2-1,0.3-1.4c0.6-0.5,1.7-1.2,3.1-1.3     C7.2,29.5,6.9,31.1,6.3,31.6z"/>
		</g>
	</g>
	<g>
		<path class="st0" d="M56,28.7H9c-0.1,0-0.2-0.3-0.2-0.6c0-0.4,0.1-0.6,0.2-0.6h47c0.1,0,0.2,0.3,0.2,0.6    C56.2,28.4,56.1,28.7,56,28.7z"/>
		<path class="st0" d="M190.1,28.7h-47c-0.1,0-0.2-0.3-0.2-0.6c0-0.4,0.1-0.6,0.2-0.6h47c0.1,0,0.2,0.3,0.2,0.6    C190.3,28.4,190.2,28.7,190.1,28.7z"/>
	</g>
	<g>
		<g>
			<path class="st0" d="M99.6,23.9c-0.1-0.1,0.7-0.8,2.2-1.9c1.6-1,4-2.3,7.2-3.4c3.2-1.1,7-2.1,11.5-2.7c2.2-0.2,4.6-0.4,7-0.1     c1.2,0.2,2.5,0.4,3.7,1c0.6,0.3,1.2,0.8,1.6,1.4c0.4,0.7,0.6,1.5,0.5,2.2c0,0.4-0.2,0.8-0.3,1.1c-0.2,0.3-0.4,0.7-0.7,0.9     c-0.6,0.5-1.2,0.8-1.8,1.1c-1.3,0.4-2.5,0.6-3.8,0.6c-2.5,0.1-4.8-0.2-7-0.6c-4.4-0.8-8.2-2-11.3-3.4c-3.1-1.3-5.4-2.8-6.9-4     c-1.5-1.2-2-2.1-2-2.1c0.1-0.1,0.8,0.7,2.3,1.7c1.5,1,3.8,2.3,6.9,3.5c3.1,1.2,6.8,2.3,11.1,3c2.1,0.3,4.4,0.6,6.7,0.5     c1.2-0.1,2.3-0.2,3.4-0.6c1-0.4,2-1,2-2c0.2-1-0.5-1.8-1.4-2.3c-1-0.5-2.1-0.8-3.3-0.9c-2.3-0.3-4.6-0.2-6.7,0     c-4.3,0.5-8.2,1.4-11.3,2.3c-3.1,1-5.6,2.1-7.2,2.9C100.4,23.3,99.6,24,99.6,23.9z"/>
		</g>
		<g>
			<path class="st0" d="M99.6,33.6c0,0,0.2-0.3,0.7-0.7c0.5-0.4,1.2-1,2.2-1.6c2-1.3,5.1-2.8,9.1-4.2c4-1.4,8.9-2.7,14.5-3.3     c2.8-0.3,5.7-0.5,8.8-0.1c1.5,0.2,3.1,0.5,4.7,1.3c0.7,0.4,1.5,0.9,2,1.8c0.3,0.4,0.4,0.9,0.6,1.3c0,0.5,0.1,0.9,0.1,1.4     c0,0.5-0.2,0.9-0.4,1.4c-0.3,0.4-0.5,0.8-0.9,1.1c-0.7,0.7-1.5,1-2.3,1.3c-1.6,0.5-3.2,0.7-4.7,0.8c-3.1,0.1-6-0.2-8.8-0.7     c-5.5-1-10.3-2.5-14.2-4.2c-3.9-1.7-6.8-3.5-8.7-5c-0.9-0.7-1.6-1.4-2-1.9c-0.4-0.5-0.6-0.7-0.6-0.8c0.1-0.1,1,0.9,2.9,2.2     c1.9,1.3,4.8,3,8.7,4.5c3.9,1.5,8.6,3,14.1,3.9c2.7,0.4,5.6,0.7,8.5,0.6c1.5-0.1,3-0.3,4.3-0.7c1.3-0.5,2.6-1.4,2.6-2.7     c0.2-1.3-0.7-2.5-1.9-3.1c-1.3-0.7-2.7-1-4.2-1.2c-2.9-0.4-5.8-0.2-8.5,0.1c-5.5,0.6-10.3,1.8-14.3,3c-4,1.2-7.1,2.6-9.1,3.8     C100.6,32.9,99.6,33.7,99.6,33.6z"/>
		</g>
		<g>
			<path class="st0" d="M99.6,37.5c-0.2-0.1,2.1-2.3,6.6-3.8c2.2-0.8,5-1.6,8.1-1.9c1.6-0.2,3.2-0.3,5-0.1c0.9,0.1,1.8,0.3,2.7,0.7     c0.9,0.4,1.9,1.6,1.6,2.8c0,0.6-0.4,1.2-0.8,1.6c-0.4,0.4-0.9,0.6-1.4,0.8c-0.9,0.3-1.8,0.4-2.7,0.5c-1.8,0.1-3.4-0.1-5-0.4     c-3.1-0.6-5.8-1.5-8-2.4c-2.2-1-3.8-2-4.8-2.9c-1-0.9-1.4-1.5-1.4-1.6c0.1-0.1,0.6,0.4,1.7,1.1c1.1,0.7,2.7,1.6,4.9,2.4     c2.2,0.8,4.8,1.6,7.8,2.1c1.5,0.2,3.1,0.4,4.7,0.3c0.8,0,1.6-0.2,2.3-0.4c0.7-0.3,1.3-0.7,1.3-1.2c0.2-1.2-1.6-1.9-3.1-2.1     c-1.6-0.2-3.2-0.1-4.7,0c-3,0.3-5.7,0.9-7.9,1.6C102,35.8,99.7,37.6,99.6,37.5z"/>
		</g>
		<g>
			<path class="st0" d="M99.6,23.9c-0.1,0.1-0.9-0.5-2.5-1.4c-1.6-0.9-4.1-2-7.2-2.9c-3.1-1-7-1.9-11.3-2.3c-2.2-0.2-4.4-0.3-6.7,0     c-1.1,0.1-2.3,0.4-3.3,0.9c-1,0.5-1.6,1.3-1.4,2.3c0,1,1,1.6,2,2c1.1,0.4,2.2,0.5,3.4,0.6c2.3,0.1,4.6-0.1,6.7-0.5     c4.3-0.7,8.1-1.8,11.1-3c3.1-1.2,5.4-2.5,6.9-3.5c1.5-1,2.2-1.8,2.3-1.7c0.1,0-0.5,0.9-2,2.1c-1.4,1.2-3.8,2.7-6.9,4     c-3.1,1.3-6.9,2.6-11.3,3.4c-2.2,0.4-4.5,0.6-7,0.6c-1.2-0.1-2.5-0.2-3.8-0.6c-0.6-0.3-1.3-0.5-1.8-1.1c-0.3-0.2-0.5-0.6-0.7-0.9     c-0.1-0.4-0.3-0.7-0.3-1.1c-0.1-0.8,0.1-1.6,0.5-2.2c0.4-0.7,1-1.1,1.6-1.4c1.2-0.6,2.5-0.9,3.7-1c2.5-0.3,4.8-0.1,7,0.1     c4.4,0.5,8.3,1.6,11.5,2.7c3.2,1.1,5.6,2.4,7.2,3.4C98.9,23.1,99.6,23.8,99.6,23.9z"/>
		</g>
		<g>
			<path class="st0" d="M99.6,33.6c-0.1,0.1-1.1-0.7-3.1-1.8c-2-1.1-5.1-2.5-9.1-3.8c-4-1.2-8.8-2.4-14.3-3     c-2.7-0.3-5.6-0.4-8.5-0.1c-1.4,0.2-2.9,0.5-4.2,1.2c-1.3,0.6-2.1,1.8-1.9,3.1c0.1,1.3,1.3,2.2,2.6,2.7c1.4,0.5,2.9,0.7,4.3,0.7     c2.9,0.1,5.8-0.2,8.5-0.6c5.4-0.9,10.2-2.3,14.1-3.9c3.9-1.5,6.8-3.2,8.7-4.5c1.9-1.3,2.8-2.3,2.9-2.2c0,0-0.2,0.3-0.6,0.8     c-0.4,0.5-1.1,1.1-2,1.9c-1.8,1.5-4.8,3.3-8.7,5c-3.9,1.7-8.7,3.2-14.2,4.2c-2.8,0.5-5.7,0.8-8.8,0.7c-1.5-0.1-3.1-0.3-4.7-0.8     c-0.8-0.3-1.6-0.7-2.3-1.3c-0.4-0.3-0.6-0.7-0.9-1.1c-0.2-0.4-0.4-0.9-0.4-1.4c-0.1-0.5,0-0.9,0.1-1.4c0.2-0.5,0.3-0.9,0.6-1.3     c0.5-0.8,1.3-1.4,2-1.8c1.5-0.8,3.1-1.1,4.7-1.3c3.1-0.4,6.1-0.2,8.8,0.1c5.6,0.7,10.5,2,14.5,3.3c4,1.4,7.1,2.9,9.1,4.2     c1,0.6,1.7,1.2,2.2,1.6C99.4,33.4,99.6,33.6,99.6,33.6z"/>
		</g>
		<g>
			<path class="st0" d="M99.6,37.5c-0.1,0.1-2.4-1.6-6.9-2.9c-2.2-0.7-4.9-1.3-7.9-1.6c-1.5-0.1-3.1-0.2-4.7,0     c-1.5,0.2-3.4,0.8-3.1,2.1c0,0.6,0.6,1,1.3,1.2c0.7,0.2,1.5,0.4,2.3,0.4c1.6,0.1,3.2-0.1,4.7-0.3c3-0.5,5.7-1.3,7.8-2.1     c2.2-0.8,3.8-1.7,4.9-2.4c1.1-0.7,1.6-1.2,1.7-1.1c0.1,0-0.3,0.7-1.4,1.6c-1,0.9-2.7,1.9-4.8,2.9c-2.2,1-4.9,1.9-8,2.4     c-1.6,0.3-3.2,0.5-5,0.4c-0.9,0-1.8-0.1-2.7-0.5c-0.5-0.2-0.9-0.4-1.4-0.8c-0.4-0.4-0.8-1-0.8-1.6c-0.2-1.2,0.7-2.4,1.6-2.8     c0.9-0.5,1.8-0.6,2.7-0.7c1.8-0.2,3.4-0.1,5,0.1c3.1,0.4,5.9,1.1,8.1,1.9C97.5,35.2,99.7,37.3,99.6,37.5z"/>
		</g>
	</g>
</g>
</svg>