<svg id="Layer_1" enable-background="new 0 0 53 53" height="100" viewBox="0 0 53 53" width="100"
    xmlns="http://www.w3.org/2000/svg" fill="#fff">
    <g>
        <path d="m40.1 21.1c-2.1-5.6-7.3-9.2-13.3-9.2-.1 0-.1 0-.2-.1h-.1c-7.8-.2-14.9 6.7-14.7 14.6 0 .2.1.4.2.5 0 1.2.1 2.5.5 3.7.9 3 2.3 5.2 4.6 7.2 1.1.9 2.4 1.7 3.7 2.3 2.7 1.1 5.7 1.4 8.5.8 2.7-.6 5.2-1.9 7.1-3.9.1 0 .3-.1.4-.2 3.3-3.2 4.7-7.4 4.3-11.6 0-1.4-.4-2.8-1-4.1zm-3.9 13.9c-3.1-2.9-6.5-6-9.7-8.5 2.6 3.2 5.7 6.7 8.6 9.8-8 6.6-20.4 2-21.6-8.9 4.2-.1 8.8-.4 13-.9-4.1-.5-8.7-.8-12.8-.9.3-2.7 1.2-5.2 3.1-7.5 2.9 2.8 6.2 5.8 9.6 8.4-2.6-3.4-5.6-6.7-8.4-9.6 2.1-1.7 4.5-2.8 7.5-3.1.1 4.1.4 8.6.9 12.7.5-4.1.8-8.7.9-12.8 4.8.5 8.7 3.3 10.7 7.3-3.7 1.6-8.1 3.6-11.6 5.5 3.9-1 8.5-2.6 12.2-3.9.3.9.4 1.9.5 2.8.4 3.2-.5 6.7-2.9 9.6z"/>
        <path d="m47.4 22.4c-.1 0-.2 0-.3 0-.3-9.1-8.8-16.9-17.5-16.6 0-.1 0-.2 0-.2-.4 1.7-1.9 2.5-3.1 2.3-1.2-.1-2.1-1.2-2.1-2.3s.9-2.2 2.1-2.3c1.2-.2 2.7.7 3.1 2.3.2-.8 0-1.8-.6-2.5-.6-.8-1.5-1.3-2.5-1.3-1-.1-2.1.3-2.9 1s-1.2 1.8-1.2 2.9v.3c-8.6.3-16.2 8-16.5 16.5-.1 0-.2 0-.3 0-1.1 0-2.1.5-2.9 1.2-.7.8-1.1 1.8-1 2.9.1 1 .6 2 1.3 2.5.8.6 1.7.8 2.5.6-1.7-.4-2.5-1.9-2.3-3.1.1-1.2 1.2-2.1 2.3-2.1s2.2.9 2.3 2.1c.2 1.2-.7 2.7-2.3 3.1h.2c-.1 2.2.4 4.5 1.3 6.6s2.2 4.1 3.9 5.7 3.6 3 5.7 3.9c1.8.8 3.7 1.2 5.7 1.3v.3c0 1.1.5 2.1 1.2 2.9.8.7 1.8 1.1 2.9 1 1-.1 2-.6 2.5-1.3.6-.8.8-1.7.6-2.5-.4 1.7-1.9 2.5-3.1 2.3-1.2-.1-2.1-1.2-2.1-2.3s.9-2.2 2.1-2.3c1.2-.2 2.7.7 3.1 2.3 0-.1 0-.2 0-.2 2.2.1 4.5-.4 6.6-1.3s4.1-2.2 5.7-3.9 3-3.6 3.9-5.7 1.4-4.4 1.3-6.6h.2c-1.7-.4-2.5-1.9-2.3-3.1.1-1.2 1.2-2.1 2.3-2.1s2.2.9 2.3 2.1c.2 1.2-.7 2.7-2.3 3.1.8.2 1.8 0 2.5-.6.8-.6 1.3-1.5 1.3-2.5.1-1-.3-2.1-1-2.9-.5-1-1.5-1.5-2.6-1.5zm-2.9 1.2c-.7.8-1.1 1.8-1 2.9.1 1 .6 2 1.3 2.5s1.5.7 2.3.6c-.7 2.1-1.6 4.1-2.7 5.9s-2.4 3.5-3.9 5-3.2 2.8-5 3.9-3.8 2-5.9 2.7c.1-.8-.1-1.6-.6-2.3-.6-.8-1.5-1.3-2.5-1.3-1-.1-2.1.3-2.9 1-.6.6-1 1.4-1.2 2.3-1.8-.7-3.4-1.4-5-2.4-1.8-1.1-3.5-2.4-5-3.9s-2.8-3.2-3.9-5-2-3.8-2.7-5.9c.8.1 1.6-.1 2.3-.6.8-.6 1.3-1.5 1.3-2.5.1-1-.3-2.1-1-2.9-.6-.6-1.4-1-2.3-1.2 2.9-7.8 7.9-13.1 16.3-16.3.1.9.5 1.7 1.2 2.3.8.7 1.8 1.1 2.9 1 1-.1 2-.6 2.5-1.3s.7-1.5.6-2.3c8.3 2.9 13.9 7.9 17.2 16.6-.9.2-1.7.6-2.3 1.2z"/>
    </g>
</svg>