<svg id="Layer_1" enable-background="new 0 0 53 53" height="100" viewBox="0 0 53 53" width="100"
    xmlns="http://www.w3.org/2000/svg" fill="#fff">
    <g>
        <path d="m13.4 5.1c-.5-.7-1.4-1.2-2.4-1.3s-2 .3-2.7 1c-.8.6-1.2 1.6-1.2 2.7 0 1 .4 2 1.2 2.7.7.7 1.8 1.1 2.7 1 1-.1 1.9-.6 2.4-1.3s.7-1.6.5-2.4c-.4 1.5-1.8 2.3-2.9 2.1-1.2-.2-1.9-1.1-1.9-2.1s.8-2 1.9-2.1c1.1-.2 2.5.6 2.9 2.1.2-.8 0-1.7-.5-2.4z"/>
        <path d="m43.2 45c.5.7 1.4 1.2 2.4 1.3s2-.3 2.7-1 1.2-1.7 1.2-2.7-.4-2-1.2-2.7c-.7-.7-1.8-1.1-2.7-1-1 .1-1.9.6-2.4 1.3s-.7 1.6-.5 2.4c.4-1.5 1.8-2.3 2.9-2.1 1.1.1 1.9 1.1 1.9 2.1s-.8 2-1.9 2.1c-1.1.2-2.5-.6-2.9-2.1-.2.8 0 1.7.5 2.4z"/>
        <path d="m47.6 1.9c-1 .1-1.9.6-2.4 1.3s-.7 1.6-.5 2.3c-1.2-.3-2.4-.5-3.6-.6-1.3-.1-2.5-.2-3.8-.3-.5 0-.9.4-1 .9 0 .1-.1.9.1 2 0 .1 0 .2.1.3-.8-.5-1.7-.9-2.6-1.3-2.9-1.2-6-1.7-9-1.7-.5 0-.8.4-.8.8v1.7c-1.2-.3-2.7-.6-4.8-.6-.9 0-1.8 0-2.7.2-.9.1-1.8.3-2.7.6.9.3 1.8.5 2.7.6s1.8.2 2.7.2c2.1 0 3.6-.2 4.8-.6 0 1.4.1 2.8.1 4.2-1.4 0-2.8.2-4.1.6-1.5.5-3 1.1-4.4 2s-2.6 2-3.7 3.2c-1 1.3-1.9 2.7-2.6 4.2-.6 1.5-1 3.1-1.3 4.7-.1 1.6-.1 3.3.2 4.9s.9 3.2 1.6 4.6c.8 1.4 1.8 2.8 2.9 4 .7.7 1.5 1.3 2.3 1.9-.2.7-.3 1.4-.4 2.1-.1.8-.1 1.6-.1 2.5-.9 0-1.9.1-2.8.2-1.2.2-2.4.3-3.6.6.2-.8 0-1.6-.5-2.3s-1.4-1.2-2.4-1.3-2 .3-2.7 1-1.2 1.7-1.2 2.7.4 2 1.2 2.7c.7.7 1.8 1.1 2.7 1 1-.1 1.9-.6 2.4-1.3s.7-1.6.5-2.3c1.2.3 2.4.5 3.6.6 1.3.1 2.5.2 3.8.3.5 0 .9-.4 1-.9v-.1c.1-1.1 0-2.3-.1-3.4-.1-.5-.2-1-.3-1.5.2.1.4.3.6.4 1.5.8 3 1.3 4.6 1.7 1.6.3 3.3.4 4.9.2s3.2-.6 4.7-1.2c.5-.2 1.1-.5 1.6-.8 1.2.3 2.6.5 4.5.5.9 0 1.8 0 2.7-.2.9-.1 1.8-.3 2.7-.6-.9-.3-1.8-.5-2.7-.6s-1.8-.2-2.7-.2-1.8 0-2.7.2c-.2 0-.4.1-.6.1.5-.3 1-.7 1.4-1 1.2-1.1 2.3-2.3 3.2-3.6.9-1.4 1.6-2.8 2-4.4.4-1.3.6-2.7.6-4.1 2.8.1 4.5.1 6.3.2.4 0 .8-.3.8-.8.1-3.1-.5-6.2-1.6-9.1-1.2-2.9-2.9-5.5-5.1-7.7-1.2-1.2-2.5-2.2-3.8-3.1.2-.3.3-.7.4-1s.1-.6.1-.9c.9 0 1.9-.1 2.8-.2 1.2-.2 2.4-.3 3.6-.6-.2.8 0 1.6.5 2.3s1.4 1.2 2.4 1.3 2-.3 2.7-1 1.2-1.7 1.2-2.7-.4-2-1.2-2.7c-.5-.8-1.5-1.2-2.5-1.1zm-42.2 47.6c-1.1-.1-1.9-1.1-1.9-2.1s.8-2 1.9-2.1c1.1-.2 2.4.6 2.9 2.1-.1 0-.1 0-.2 0h.2c-.5 1.6-1.8 2.3-2.9 2.1zm41.2-22c-3.5.1-6.9.2-10.4.3l-5.6.2c-1.9.1-3.8.2-5.6.3h.3c1.8.1 3.5.2 5.3.3l5.6.2c1.3 0 2.6.1 3.9.1-.1 1.3-.3 2.5-.7 3.7-.5 1.4-1.2 2.7-2 3.9-.9 1.2-1.9 2.3-3 3.2-1.2.9-2.4 1.6-3.8 2.2-1.4.5-2.8.8-4.2 1-1.5.1-2.9 0-4.3-.3s-2.8-.8-4.1-1.5-2.4-1.6-3.5-2.6c-1-1-1.9-2.2-2.6-3.5s-1.2-2.7-1.5-4.1-.3-2.9-.2-4.3c.2-1.4.5-2.9 1-4.2.6-1.3 1.3-2.6 2.2-3.8.9-1.1 2-2.1 3.2-3 1.2-.8 2.6-1.5 4-2 1.2-.4 2.5-.6 3.7-.7 0 1.3.1 2.7.1 4 .2 5.4.3 7.6.5 11.1v.3c.2-3.2.3-5.6.5-11.4.1-3.5.2-7 .3-10.5 5.4.3 10.7 2.6 14.5 6.5 3.9 3.9 6.2 9.2 6.4 14.6zm1-19.8c-1.1.2-2.4-.6-2.9-2.1h.2c-.1 0-.1 0-.2 0 .4-1.5 1.8-2.2 2.9-2.1s1.9 1.1 1.9 2.1-.8 2-1.9 2.1z"/>
    </g>
</svg>