<svg id="Layer_1" enable-background="new 0 0 70 70" height="100" viewBox="0 0 70 70" width="100"
    xmlns="http://www.w3.org/2000/svg" fill="#fff">
    <g id="_x34_6">
        <path d="m65.2267609 23.4981613c-3.8036728 1.401989-2.5343094 1.283699-9.0699501 3.6181641-.593483-.2680511-1.0717888.0426579-2.6634521.5537109-.9013672.3007813-1.8701172.6044922-2.84375.7880859-.2601318.0497437-.4671021.2359619-.5580444.4815674-3.5123901.923008-5.4101334 1.1354408-5.2163696 1.2215576-.0527344-.0205078-.1396484-.0898438-.2226563-.1572266l-.0761719-.0605469c-1.0941925-.9202805-1.9185104-1.125948-3.1896362-1.8649902-.0360718-.6187744-.3552856-1.2366943-.9207153-1.708252-1.0749168-.8408318-2.3508644-.7922916-3.1904297-1.3378906-.8245239-.5262909-2.1921082-2.7012863-5.1494141-.1679688-1.1170158.9607506-1.4311924.7499981-2.5341778 1.2705078-2.4749489 1.127018-4.1350479 2.3496819-4.2363281 2.4130859-.6469631.4659672-.2533913.1593533-3.3408203-.1766357-.1254997-.8314342-.8028622-1.2383156-1.59375-1.5137939-1.866539-.6464653-2.875309-.769743-3.4511719-.8925781-.9484234-.1629295-1.6822815-.1009445-2.5310678 1.6769409-3.7627373-.6063061-5.5192251-1.682972-9.2765503-3.210144-.3671875-.1523438-.7958984.015625-.9638672.3818359-2.2490234 4.8974609-2.40625 11.0537109-.4111326 16.0654297.0373535.0932007.0965576.1707764.1639404.2399902-.2435303.1693726.0358276.5006104.2465818.6483765.3661499.2567749.8377686.281189 1.2692261.3001709 2.4535522.1077271 2.4989624.074646 4.9487305-.0990601.3018951.9212914 1.2589359 1.7930832 2.7366333 1.9835205 1.3404951.5272484 3.4571581.2756004 4.8067636.1164551.1982422-.0224609.3886719-.1289063.5126953-.2861328.2307739-.2918701.2218018-.5614014.0647583-1.8764648.0917969.0098877.1800537.0186157.2747192.02948-.138567.8508492-.1235905 1.155838-.0966187 1.524231-.046875.270813-.0802002.5375977-.0627441.7855225.0543213.7718506.6563721 1.5652466 1.2695313 1.9894409.3598022.2489624.774292.4221802 1.0941772.7207642.4445801.414978.6519165 1.0178833.9805298 1.5296021.6120605.9529419 1.6917114 1.5890503 2.8218384 1.6625977.3077393.8820801 1.0187378 1.6143188 1.8913574 1.9478149.355896.1360474.7407227.2113037 1.0600586.4191284.8563938.5574303.9614315 1.8527985 2.8991699 2.2297974.5649548.2355309 1.165966.3404541 1.7163067.0664063.3468933-.1645393.5773621-.4343262.7939453-.6738281.2763596-.2750473.5114594-.4217606 1.0784302-.873291.1365967.0679321.2769775.1274414.4216309.178833-.1269531-.0681152-.2542114-.135498-.3812866-.2033081.8887138.4028015.5817223.2635689.6481323.2939453-.0907593-.0247803-.1782227-.0592041-.2668457-.0906372.7841187.4208374 1.5751343.8201904 2.4976807.8414917 1.1203003.0258789 2.3432007-.7349243 2.4078979-1.8535767 1.5280113.703701 3.3402481-.1094131 3.8270874-1.7233887 2.3756828 1.0263519 4.6865425.0492401 5.3364258-1.7701416.3535156-.9897461.1015625-2.1977539-.6948242-2.883606 1.0795288.5110474 2.4555054.3148804 3.3491821-.477478.8936768-.7924194 1.2531738-2.1350098.875061-3.2679443.3013916-.0447998.6027222-.0895386.9041138-.1343384.5869637.7923622 1.584446.8536491 2.5654297.7667236.9332275-.0825806 1.8577271-.2636719 2.7531738-.5393066 1.0030479-.3088531 1.9905548-.8150558 2.1253052-1.8600464.1751022-1.3586349 1.5515175-.8145332 3.416935-1.3703003 1.2314224-.366745 2.5110321-.7871742 2.9274902-.8832397.328125-.0751953.5654297-.359375.5810547-.6953125.2216797-4.7539063-.2294922-9.3222656-1.3398438-13.5791016-.1140747-.4355489-.575882-.6657907-.984375-.5146486zm-.265625 1.7011719c.8837891 3.7070313 1.2578125 7.6523438 1.1152344 11.7490234-1.6755219.349926-.8181305-.1243553-3.3164101.453125-.1693001.0412064-2.4978065.5784683-2.6101074.6043701-.2925606-3.520565-.7860603-6.8253651-2.8642578-9.7032471 5.5524825-2.0100478 4.8538207-2.024578 7.6755409-3.1032714zm-9.3730507 3.3447266c.0009766.0009766.0019531.0019531.0029297.0029297 1.7325249 2.010416 2.2645607 4.4978981 2.3193359 4.6416016.4885635 1.8419228.78125 4.7100906.78125 5.7490234 0 .0785522.0223389.1503906.0447388.2215576.0269165.380249.0365601.7125854-.086731.9063721-.3731117.5894127-3.2011719 1.1355362-3.8339844.9394531.0054779-.1204681.0284081-.3343887.0521851-.5986328.0535889-.1338501.0819092-.2789307.0493774-.4306641-.0014648-.0066528-.0062866-.0114136-.0078735-.0180054.1803818-1.9036865.3947144-2.6310005.218811-4.2085571-.2432976-2.2027626-1.1953888-4.4072685-2.8076172-6.1455078 1.0657197-.2953186 3.1495362-1.0166455 3.2675782-1.0595703zm-11.8779297 2.6269531c.5812454.4696159.9834976.5880775 1.6621094.3769531.4575882-.1492119 1.9568176-.3183632 5.4821777-1.2565308 2.2360229 2.153389 3.1208801 5.0947876 2.7600098 7.7399292-.0679932.4989624-.1223755.9974976-.1717529 1.4970093-3.9163933.8718109-2.5510979.3800926-3.1137085.6259766-1.6008415-1.1083717-2.2617874-.7934227-8.0543823-5.0985718-2.2495575-1.6683655-4.3835869-3.0934143-4.2442017-2.9954224-.3625221-.1430702-.851738-.1193771-1.2323608.1370239-.812767.5163612-.9577065 1.3169441-1.2021484 1.9150391-.3829575.9640923-1.080307 1.8719139-2.0087891 2.4863281-.3994141.265625-.9365234.4921875-1.2666016.3095703-.1669922-.0849609-.3173828-.3173828-.4228497-.6494141-.2880859-.9277344-.0517578-1.921875.1982403-2.5957031.3310547-.9052734.8496094-2.1835938 1.5390625-2.8339844 1.319664-1.2550964 3.1658592-2.1965599 4.0864258-2.5047607.331253.1278191 1.4305343-.2189025 5.9887695 2.8465577zm-17.4785137-1.4052735c.100008-.0625458 1.6399441-1.199049 3.9912109-2.2695313.6279278-.2975826 1.4536037-.4517059 2.1445293-.9169922.5003357-.3304443 1.0326233-.8797512 1.4511719-1.1220703 1.6891975-.9368343 1.4791527.6077366 3.7907104 1.3435669-1.1250534.2823448-3.3311806 1.3488865-5.0055542 2.9386597-.9082012.8574219-1.5009747 2.2714844-1.9150372 3.4052734-.4736328 1.2753906-.5507813 2.5058594-.2216797 3.5634766 1.0909729 3.4404144 5.3133678 1.4276276 6.6669903-2.4316406.1310425-.3736572.2233887-.6065674.4082642-.7624512 1.2507782.9100609 2.7157936 1.9135094 3.8378296 2.7468262 5.2981911 3.9340935 6.2447357 4.0523415 6.828125 4.4052734.9493904.4702759 2.260376 1.142292 2.4277344 2.2568359.0742188.4794922-.1640625.9873047-.5253906 1.1298828-.3212891.1240234-.7753906.0214844-1.1777344-.09375-1.4912109-.4287109-2.8164063-1.1259766-4.1689453-2.1953125-.6632538-.5211296-1.5564575.2899933-1.0927734.9990234 2.6707802 4.088604 3.0020523 4.5092659 2.9511719 5.1054688-.0332031.4853516-.5283203.9501953-1.1142578 1.0380859-1.4503326.246521-2.6891785-1.2493629-3.5996094-2.3837891-.2685547-.3154297-.7431641-.3525391-1.0576172-.0869141-.3154297.2685547-.3544922.7421875-.0869141 1.0576172.6412048.7656708.8743134 1.3175354.9023438 1.8232422.0302734.5410156-.3037109 1.0996094-.7197266 1.1962891-.3886719.0917969-.9111328-.15625-1.2724609-.3515625-.6201172-.3310547-1.3222656-.7070313-1.8994141-1.1708984-.6874847-.5508995-1.5998459.3399124-1.0664063 1.0390625.3164063.4160156.6757813.8876953.8085938 1.3632813.0917969.3349609.0722656.7695313-.1757813.9863281-.3046875.2675781-.9482422.1767578-1.9042969-.2695313l-.0889282-.0405273c.9029961-1.6214485-.166069-3.4444122-1.6868286-3.8631592 2.0578575-3.0800133-1.0201111-6.0586166-4.1221294-3.9126587.0334053-1.6842308-1.8662128-2.9007988-3.1646118-2.7959595-.4703369.0302124-.921936.1946411-1.361084.4968872-1.7894859-1.0822678-4.2472286-1.3689156-6.5414429-1.6032715.3161011-3.2927475 2.5677643-7.0632401 3.3503418-10.5319824.3668823.0394897.7338257.0735474 1.1010132.1256714 1.6246357.2064096 2.0827503.6611692 3.3085938-.2187499zm6.3290996 17.3886719c-.6613903 1.2206879-2.5489902 2.1547203-3.1236553 3.5096436-.0458984.0203857-.0925903.0478516-.1386108.069397-1.1313343-.032711-2.4488869-.1717339-2.6703491-1.2880249 1.0491447-.5974083 1.4010658-1.707798 2.9296875-3.2119141.4628906-.4541016 1.0820313-.9951172 1.7675781-1.1425781.4853516-.1044922 1.1103497.0439453 1.3652325.5292969.2070312.3916015.1552734 1.0078124-.1298829 1.5341796zm-6.7128887.8320313c-.5332031.3662109-1.296875.3125-1.8183594-.1279297-.4365234-.3691406-.8671875-1.2753906-.7382813-1.7041016.0351563-.0605469.1982422-.1972656.2958984-.2783203.9824772-.8187332 1.7817783-2.8112564 2.8828125-2.8828125.5723095-.0301208 1.4370747.5604362 1.5527344 1.0693359.1758653.7649117-1.4633369 3.4354287-2.1748046 3.9238282zm-5.6025391-5.5302735c.3866386.061924 1.5968952.062294 2.2871094.4667969.3203125.1884766.6503906.5791016.6181641.9921875-.0833263 1.0538177-2.049118 1.3858566-2.6972656.3212891-.3062153-.5009156-.2859993-1.1965981-.2080079-1.7802735zm-14.9697275-16.3564453c3.2715101 1.3712616 5.0934982 2.3633671 8.572937 2.9661865-1.3984604 3.4798164-1.9900198 5.6260109-2.2962646 10.8687744-2.9163885-.1188049-3.6038852-.1007729-6.552063-.0859375-1.5732419-4.3261718-1.4667966-9.4843749.2753906-13.7490234zm8.1777344 16.3251953c-.6940098-.5599403-.3658285-2.7293472-.2998047-3.8847656.3135014-5.4465027 1.9891882-8.473423 2.4414063-9.8300781.0467367-.1451302.3725882-.8736839.680665-1.2167969.0605469-.0664063.0957031-.0917969.0957031-.0957031.376976-.0127773 3.8235435.7715416 4.1621094 1.1884766.0058594.0175781.0146484.0800781-.03125.3007813 0 0 0 .0009766-.0009766.0019531-.0808182.2655067-.0697098 1.1131611-1.5595703 4.8261719-.9354134 2.3420639-1.9331589 4.6866989-2.0136719 7.2119141-.0036697.1900787.1377335 1.283802.1845703 1.7294922-.8000583.0855482-3.0350122.2779005-3.6591806-.2314455zm18.6484365 10.6689453c-.0915184.1005859-.2726955.3201714-.373045.3681641-.2042332.1077919-1.6221313-.5081711-1.8544312-1.3199463 1.853796-.5877876 2.4237576-3.4487801 3.8329449-2.2542725.3251953.2705078.5175781.7148438.46875 1.0839844-.0691147.3920059-.3723373.7343597-.6835938.9863281-.4467696.3848687-.9014815.6449967-1.3906249 1.1357422z"/>
        <path d="m14.9015627 40.4053879c-.4140625 0-.75.3359375-.75.75v.0517578c0 .4140625.3359375.7236328.75.7236328s.75-.3613281.75-.7753906-.3359375-.75-.75-.75z"/>
        <path d="m56.1662102 39.1426926c-.0117188.4140625.3134766.7597656.7275391.7724609h.0224609c.4042969 0 .7373047-.3212891.75-.7275391.0175781-.5947266-.0410156-1.1904297-.171875-1.7705078-.0917969-.4042969-.4921875-.6591797-.8964844-.5664063-.4042969.0908203-.6582031.4931641-.5664063.8964844.1035157.4580079.1484375.9277344.1347657 1.3955079z"/>
        <path d="m38.3820305 15.516717-1.0957031 2.9472647c-.1445313.3886719.0537109.8203125.4414063.9648438.3852615.1428509.8193741-.0505314.9648438-.4414063l1.0957031-2.9492188c.1445313-.3876944-.0537109-.819335-.4423828-.9638662-.3876954-.1464844-.8193361.0527343-.9638673.4423828z"/>
        <path d="m44.1789055 19.4796066c-.2089844-.3574219-.6679688-.4785156-1.0263672-.2685547l-2.6191406 1.5302734c-.6595268.3845768-.3842125 1.3974609.3789063 1.3974609.3583336 0 .3703651-.1379204 2.9980469-1.6328125.3574218-.2089843.477539-.6689452.2685546-1.0263671z"/>
        <path d="m42.3410149 24.9503098 2.5068359.1611328c.4204521.0262794.7698517-.2924633.7958984-.7001953.0273438-.4130859-.2861328-.7695313-.7001953-.7958984l-2.5068359-.1611329c-.4072266-.0302734-.7695313.2861328-.7958984.7001953-.0273438.413086.2861328.7695313.7001953.7958985z"/>
    </g>
</svg>