<svg id="Layer_1" enable-background="new 0 0 55 55" height="100" viewBox="0 0 55 55" width="100"
    xmlns="http://www.w3.org/2000/svg">
    <g fill="#fff">
        <path d="m17.8875809 19.9224224c-.1765137-.4082031-.5388184-.7822266-.9245605-.8376465-.6567383-.03125-.895752.09375-.9213867.1755371-.0292969.1054688.345459.1987305.7583008.3554688.2990723.1374512.4589844.8444824.4406738 1.7683105-.0036621.4611816-.0395508.9755859-.0881348 1.5380859-.0224609.2900391-.0456543.5898438-.0695801.8986816-.0151367.2785645-.0524902.5388184-.1276855.6972656.0437012.5053711-1.8879395.2277832-3.260498.2702637-.3249512-.0031738-.6259766-.0495605-.7832031-.1240234-.1462402-.1052246-.121582-.026123-.1606445-.2468262l-.0100098-.4968262c-.0453434-.7009277-.016367-.3248501-.1240234-1.5200195-.0541992-.6228027-.0864258-1.2080078-.0317383-1.6860352.0847168-.5200195.1333008-.6408691.5019531-.8249512.7370605-.3083496 1.5761719-.3283691 2.0966797-.4001465.5412598-.057373.8547363-.1291504.8579102-.229248.003418-.0969238-.284668-.2116699-.8325195-.3256836-.5554199-.083252-1.3413086-.2758789-2.473877.0095215-.2800293.0869141-.6152344.2404785-.8862305.5710449-.2568359.3291016-.3532715.6679688-.4294434.9956055-.1891918.9262772-.117466 1.9187202-.0739746 2.9580078l.0136719.4833984c.001709.1430664-.0124512.2966309-.0041504.5454102.0065918.2282715.0668945.565918.25.84375.1772461.2810059.4450684.4875488.6931152.6035156.5041504.2314453.9533691.2565918 1.3679199.2702637.7463379.0019531 1.4750977.0039063 2.1789551.0056152.357666-.0048828.7751465.0021973 1.2456055-.1582031.4790039-.1391602.9504395-.6123047 1.0876465-1.0617676.1601563-.4450684.1589355-.8251953.1591797-1.1538086-.0009766-.3012695-.001709-.59375-.0026855-.8764648-.0031569-.941223-.0508673-2.1960143-.4472658-3.0480956z"/>
        <path d="m17.8875809 29.8374615c-.1765137-.4084473-.5388184-.7822266-.9245605-.8376465-.6567383-.0314941-.895752.0935059-.9213867.175293-.0292969.1057129.345459.1989746.7583008.3557129.2990723.137207.4589844.8442383.4406738 1.7680664-.0036621.4611816-.0395508.9758282-.0881348 1.538084-.0224609.2900391-.0456543.5898438-.0695801.8989258-.0151367.2783203-.0524902.5385742-.1276855.6972656.0437012.5053711-1.8879395.2275391-3.260498.2700195-.3249512-.0029297-.6259766-.0495605-.7832031-.1240234-.1462402-.1052246-.121582-.0258789-.1606445-.2468262l-.0100098-.4968262c-.0449495-.6939049-.0158825-.3201447-.1240234-1.5197754-.0541992-.623045-.0864258-1.20825-.0317383-1.6862774.0847168-.5200195.1333008-.6408691.5019531-.824707.7370605-.3085938 1.5761719-.3283691 2.0966797-.4001465.5412598-.057373.8547363-.1293945.8579102-.2294922.003418-.0969238-.284668-.2116699-.8325195-.3254395-.5554199-.0834961-1.3413086-.276123-2.473877.0092773-.2800293.0869141-.6152344.2404785-.8862305.5710449-.2568359.3291016-.3532715.6679688-.4294434.9958496-.1891918.9259319-.1174507 1.9190922-.0739746 2.9580059l.0136719.4833984c.001709.1428223-.0124512.2963867-.0041504.5454102.0065918.2280273.0668945.565918.25.8435059.1772461.2810059.4450684.4875488.6931152.6035156.5041504.2316895.9533691.2568359 1.3679199.2702637.7463379.0019531 1.4750977.0039063 2.1789551.0058594.357666-.0048828.7751465.0019531 1.2456055-.1584473.4790039-.1391602.9504395-.6120605 1.0876465-1.0615234.1601563-.4450684.1589355-.8254395.1591797-1.1540527-.0009766-.3012695-.001709-.5935059-.0026855-.8762207-.0031511-.9400882-.0507013-2.1956558-.4472658-3.0480937z"/>
        <path d="m17.8875809 39.7522545c-.1765137-.4082031-.5388184-.7822266-.9245605-.8376465-.6567383-.03125-.895752.09375-.9213867.1755371-.0292969.1054688.345459.1987305.7583008.3554688.2990723.1374512.4589844.8444824.4406738 1.7683105-.0036621.4611816-.0395508.9755859-.0881348 1.5380859-.0224609.2897949-.0456543.5898438-.0695801.8986816-.0151367.2785645-.0524902.5388184-.1276855.6972656.0437012.5053711-1.8879395.2277832-3.260498.2702637-.3249512-.0031738-.6259766-.0495605-.7832031-.1240234-.1462402-.1052246-.121582-.026123-.1606445-.2468262l-.0100098-.4968262c-.0453434-.7009277-.016367-.3248482-.1240234-1.5200195-.0541992-.6230469-.0864258-1.2080078-.0317383-1.6860352.0847168-.5200195.1333008-.6408691.5019531-.8249512.7370605-.3083496 1.5761719-.3283691 2.0966797-.4001465.5412598-.057373.8547363-.1293945.8579102-.229248.003418-.0969238-.284668-.2116699-.8325195-.3256836-.5554199-.083252-1.3413086-.2758789-2.473877.0095215-.2800293.0869141-.6152344.2404785-.8862305.5708008-.2568359.3293457-.3532715.6682129-.4294434.9958496-.1891918.926281-.117466 1.9187202-.0739746 2.9580078l.0136719.4833984c.001709.1430664-.0124512.2963867-.0041504.5454102.0065918.2282715.0668945.565918.25.84375.1772461.2810059.4450684.4875488.6931152.6032715.5041504.2316895.9533691.2568359 1.3679199.2705078.7463379.0019531 1.4750977.0039063 2.1789551.0056152.357666-.0048828.7751465.0021973 1.2456055-.1582031.4790039-.1391602.9504395-.6123047 1.0876465-1.0617676.1601563-.4450684.1589355-.8251953.1591797-1.1538086-.0009766-.3012695-.001709-.59375-.0026855-.8764648-.0031569-.9412231-.0508673-2.1960143-.4472658-3.0480956z"/>
        <path d="m27.5711746 20.050108c-3.8430176 0-6.9584961.3193359-6.9584961.7133789 0 .3942871 3.1154785.713623 6.9584961.713623s6.958252-.3193359 6.958252-.713623c0-.394043-3.1152344-.7133789-6.958252-.7133789z"/>
        <path d="m24.4461746 23.1333599c-2.1171875 0-3.8334961.3195801-3.8334961.713623s1.7163086.7133789 3.8334961.7133789c2.1169434 0 3.833252-.3193359 3.833252-.7133789s-1.7163086-.713623-3.833252-.713623z"/>
        <path d="m24.4461746 34.8611412c2.1169434 0 3.833252-.3193359 3.833252-.713623 0-.394043-1.7163086-.7133789-3.833252-.7133789-2.1171875 0-3.8334961.3193359-3.8334961.7133789 0 .3942871 1.7163086.713623 3.8334961.713623z"/>
        <path d="m24.4461746 45.227108c2.1169434 0 3.833252-.3193359 3.833252-.713623 0-.394043-1.7163086-.7133789-3.833252-.7133789-2.1171875 0-3.8334961.3193359-3.8334961.7133789 0 .3942871 1.7163086.713623 3.8334961.713623z"/>
        <path d="m46.7108231 36.756649c-.2800293.0700684-.2700195.0500488-.3500977 0-.0698242-.0400391-.1098633-.1201172-.119873-.3100586-.0100098-.1799316.0600586-.4099121.1499023-.5500488.0600586-.0800781.0700684-.1000977.1601563-.1699219.0898438-.0600586.1999512-.1298828.329834-.1899414.2600098-.1401367.5700684-.2600098.9299316-.5.3601074-.2099609.8100586-.75.8000488-1.3400879-.0100098-.5800781-.1899414-.880127-.2897949-1.1799316-.2402344-.6201153-.5200195-1.2499981-.9501953-1.840086-.3898926-.5700684-1.0998535-1.2199707-2.0600586-1.2199707-.4599609.0200195-.8498535.1298828-1.2197266.3598633-.3500977.2202148-.6000977.4799805-.8100586.7102051-.2099609.2199707-.380127.4099121-.5400391.5197754-.1699219.1101074-.3701172.1801758-.4799805.1801758-.1801758-.0300293-.2600098 0-.25-.5500488 0-.4899902.2099609-1.1599121-.1000977-1.9699707-.3398438-.8100586-1.119873-1.1799316-1.7399902-1.3100586-.5908203-.114502-1.1682129-.1049805-1.7219238-.0068359.0042458-.2533474-.0513954-4.2267323-.078125-6.6030273-.0498047-1.7600098-.0898438-3.130127-.1499023-4.0700684-.0600586-.9399424-.1601563-1.420167-.1999512-1.420167-.0600586.0102539-.0600586.5-.0900879 1.420167-.0300293.9299316-.0800781 2.3100586-.1098633 4.0900879-.0978966 3.4421139-.1805229 6.7801132-.1813965 6.8103027-.3557129.1347656-.7006836.2980957-1.0187988.5195313-.5100098.3400879-.9799805 1-1.0100098 1.6799316-.0397949.5700684-.0197754 1.0302734-.119873 1.3901367-.0600586.1799316-.1000977.2399902-.1401367.2600098-.0498047.0400391-.119873.0400391-.1799316.0100098-.3000488-.1699219-.6699219-.4799805-.9899902-.7700195-.3300781-.3200684-.6599121-.6298828-.9699707-.9299316-.3300781-.2900391-.7800293-.7199707-1.4699707-.7102051-.6801758.0500488-1.0600586.4902344-1.3300781.7299805-.2199707.1901855-.4699707.3701172-.7099609.5800781-.6699219-.0200195-1.3901367-.0297852-2.1298828-.0297852-3.8400879 0-6.9602051.3198242-6.9602051.7197266 0 .3901367 3.1201172.7102051 6.9602051.7102051.3498535 0 .6899414 0 1.0297852-.0100098-.1298828.3898907-.079834.8498516.1401367 1.1799297.2700195.4001465.6298828.5900879.9099121.75.3000488.1599121.5600586.2900391.7199707.4499512.170166.1601563.2099609.2600098.1501465.4899902-.0600586.25-.1501465.5100098-.2299805.7399902-.170166.4501953-.380127.9399414-.5900879 1.1401367-.2700195.2099609-.6599121.1999512-.9899902.1699219-.3400879-.0300293-.6501465-.0600586-.9001465-.0200195-.5097656.0800781-.6799316.3400879-.6499023.3500977.0300293.0498047.2299805-.1201172.6699219-.1101074.2202148 0 .4902344.0700684.8300781.1398926.3300781.050293.8200684.1601563 1.3100586-.1499023.4399414-.3798828.6000977-.8100586.8500977-1.2998047.0998535-.25.2099609-.5102539.2998047-.8100586.0300293-.130127.1000977-.3701172.0400391-.5700684-.0400391-.1999512-.1799316-.4099121-.3100586-.5400391-.5200195-.5200195-1.2399902-.7099609-1.4499512-1.119873-.1098633-.2001953-.119873-.420166.0100098-.6501446.0300293-.0500488.0600586-.1101074.1000977-.1599121.1298828-.1899414.3300781-.3701172.5400391-.5500488.3098145-.2299805.619873-.4799805.9399414-.7199707.0100098-.0100098.0300293-.0200195.0400391-.0300293.2900391-.2700195.5600586-.4499512.7399902-.4399414.4023781-.0366211 1.0605125.8244839 1.7199707 1.4399414.3500977.3300781.6699219.6501446 1.1999512.959959.3500977.2199707.8100586.2299805 1.1699219.0100098.1801758-.1000977.3400879-.2600098.4499512-.4299297.1101074-.1599121.170166-.3200684.2202148-.4699707.1699219-.6000977.1398926-1.1501465.1899414-1.5900879.0400391-.3400879.2299805-.6101074.5700684-.8601074.6999512-.4697266 1.7399902-.6899414 2.6098633-.4799805.4401855.1000977.7700195.3200684.8601074.5900879.119873.2700195.0400391.7800293-.0200195 1.4299316-.0200195.3200684-.0400391.75.2399902 1.2202148.2700195.4499493.8100586.7197247 1.3000488.6999493.9299316-.0200195 1.5698242-.6799297 1.9599609-1.1000957.3999023-.4499512.7099609-.619873 1.0698242-.6398926.3100586 0 .6601563.2399902.9702148.6899414.2998047.4199219.5400391.959959.7600098 1.5300274.1098633.2897949.2099609.579834.1899414.6499023s-.0100098.1000977-.1899414.2299805c-.1801758.1201172-.4699707.25-.7900391.4099121-.1599121.0800781-.3400879.170166-.5200195.300293-.170166.119873-.3898926.3398438-.5100098.5397949-.26001.4099118-.3798831.8400876-.3798831 1.3300779-.0102539.4499512.1899414 1.079834.6799316 1.4199219.2099609.170166.5200195.3000488.8200684.3200684.2897949.0200195.5397949-.0300293.7397461-.0800781.380127-.119873.6601563-.2199707.8400879-.2299805.4001465-.0100098.8601074.1899414 1.1501465.5800781.619873.7900391.7199707 2.2299805.1398926 3.0300293-.1899414.2600098-.4001465.3898926-.630127.4099121-.2700195.0300293-.6999512-.0600586-1.2199707-.1298828-.2600098-.0300293-.5598145-.0600586-.9499512.0400391-.3999023.0998535-.7900391.4099121-.9699707.8098145-.1999512.4299316-.1398926.9001465 0 1.2199707.130127.3300781.3200684.5800781.5400391.8000488.5.4599609.9299316.6000977 1.25.8200684.3200684.2099609.4299316.3500977.4799805.5698242.1101074.5-.2399902 1.0900879-.8601074 1.550293-.3098145.2299805-.6599121.4697266-.9099121.5498047-.2299805.0700684-.4199219.0500488-.7199707-.0898438-.5900879-.25-1.1298828-1.0500488-2.25-1.4101563-.2800293-.0800781-.5700684-.1000977-.8999023-.0600586-.3200684.0300293-.6901855.2202148-.9301758.4702148-.4799805.5498047-.5300293 1.0998535-.5698242 1.5498047-.0400391.4702148-.0200195.9001465-.0102539 1.2900391.0102539.1801758.0102539.380127-.0097656.5100098-.0200195.1501465-.0300293.1599121-.0400391.170166 0 .0097656-.1401367.0698242-.380127.0998535-.2600098.0400391-.5100098.0700684-.7700195.1000977-.5.0397949-1.0100098.0500488-1.5100098.0300293-.4899902-.0200195-.8198242-.1101074-.9899902-.3300781-.0998535-.1101074-.1899414-.2700195-.2600098-.4699707-.0400391-.1000977-.0698242-.1999512-.0998535-.3100586-.0100098-.0700684-.0200195-.1501465-.0300293-.2700195-.0300293-.4599609 0-.9899902-.1499023-1.5998535-.0400391-.1601563-.1000977-.3200684-.1901855-.4902344-.0898438-.1699219-.2600098-.3498535-.4399414-.4699707-.380127-.2399902-.8601074-.2600098-1.25-.079834-.380127.1899414-.5800781.4499512-.7299805.6599121l-.4001465.5600586c-.2197266.2897949-.4499512.3999023-.7998047.4499512-.6899414.0800781-1.3701172-.3200684-2.0100098-.8300781-.3300781-.2600098-.670166-.5100098-.8400879-.7399902-.1799316-.2299805-.1999512-.4399414-.1298828-.7199707.1699219-.5898438.7700195-1.0698242 1.1899414-1.8000488.1999512-.3598633.3798828-.7600098.3598633-1.2399902-.0200195-.4199219-.2299805-.8100586-.5397949-1.0498047-.0500488-.0400391-.1000977-.0800781-.1501465-.1101074-.7998047-.420166-1.4699707-.2399902-2.0200195-.2800293-.5698242-.0100098-1.0200195-.1098633-1.2998047-.4099121-.1501465-.170166-.2602539-.3500977-.3400879-.5500488-.2299805-.5700684-.2199707-1.2299805-.2099609-1.7199707.0397949-.6901855.1799316-1.2102051.3498535-1.5200195.1601563-.3100586.3100586-.4299316.2900391-.4699707-.0200195-.0200195-.2199707.0498047-.4699707.3598633s-.4799805.8500977-.5800781 1.5800781c-.0500488.3701172-.0898438.7800293-.0500488 1.25.0200195.1699219.0400391.3398438.0900879.5200195-3.1599121.0698242-5.5400391.3598633-5.5400391.6999512 0 .3898926 2.9401855.6999512 6.630127.7199707.9099121.4101563 2.1000977.1000977 2.7299805.4799805.3798828.2399902.3701172.7399902.0100098 1.3000488-.3000488.5300293-1 1.0100098-1.3400879 1.9499512-.1899414.4702148-.119873 1.1601563.2199707 1.5800781.3200684.4399414.6801758.6799316 1 .9599609.3400879.2800293.7199707.5700684 1.170166.7900391.4499512.2299805 1.0100098.3798828 1.579834.3300781.2800293-.0200195.5800781-.1000977.8601074-.2402344.2800293-.1298828.5400391-.369873.7099609-.579834.3200684-.420166.5900879-.8500977.7399902-.880127.0500488-.0200195.1101074-.0200195.1398926.0102539.0302734.0097656.0700684.079834.1201172.2697754.0800781.3500977.0700684.8300781.0900879 1.380127 0 .2852745.094223.6703491.1799316.9099121.0053711.017334.015625.0354004.0212402.0529785-.8110352.1672363-1.8193359.2114258-2.7612305.2971191-1.0100098.079834-2.0400391.1398926-3.0700684.1899414-4.1599121.1699219-8.5400391.0900879-13.0800781-.0900879-2.2797852-.0998535-4.5898438-.1999512-6.9399414-.2998047-1.1599121-.0400391-2.2199707-.170166-2.9399414-.7700195-.3500977-.3000488-.5600586-.6401367-.6599121-1.1101074-.1101074-.4799805-.1101074-1.0600586-.1501465-1.6799316-.0600586-1.2001953-.1298828-2.3999023-.1899414-3.6000977-.0734248-2.1821365-.2764244-9.5770378-.3000488-10.4699707.0783782-8.8873234.1163497-10.8018665.0600586-13.130125-.0100098-1.0397949-.0100098-2.0598145.0700684-3.0397949.0898438-.9699717.2199707-1.9699717.5400391-2.7700205.5898438-1.5900879 2.4299316-2.3100586 4.1599121-2.6201172.1831055-.029541.3635254-.0480957.5441895-.0742188.0673933.8905172.4121952 1.7594347 1.0695801 2.3427734.3540039.3156738.7807617.5200195 1.2004395.6459961.8464355.2490234 1.682373.2492676 2.4868164.2407227 3.1643066-.0356445 6.6428223-.074707 10.2944336-.1157227.8891602-.0192871 1.8205566-.0070801 2.7617188-.1137695.9294434-.1230469 1.9367676-.2922363 2.8193359-1.012207.4296875-.3520508.7785645-.8874512.8859863-1.4313965.1018066-.3720703.1013184-.7304688.0710449-1.0603027.0480957.0007324.098877-.003418.1464844-.001709 1.0500488.0200195 2.0100098.1298828 2.8100586.3898926.7998047.2600098 1.4099121.6999512 1.7797852 1.2199707.3701172.5200195.5102539 1.0700684.6201172 1.5200195.2099609.8901367.2600098 1.3798828.3200684 1.3798828.0397949 0 .079834-.4897461-.0400391-1.4299316-.0600586-.4599609-.1599121-1.079834-.5500488-1.6999512-.3798828-.6298828-1.0700684-1.1899414-1.9399414-1.5100098-.9499512-.369873-2.0541992-.5012207-3.2531738-.5473633-.0761719-.3806152-.1809082-.7731934-.3896484-1.1591797-.2358398-.4604492-.6750488-.8828125-1.1801758-1.0908203-1.001709-.3913574-1.831543-.2412109-2.5751953-.2243652-.7358398.0461426-1.4414063.074707-1.8796387-.1115723-.2312012-.0866699-.331543-.2089844-.467041-.4262695-.128418-.2282715-.208252-.4919434-.2736816-.7929688-.1206055-.5859375-.2497559-1.3620605-.6943359-1.9504395-.8754883-1.1062009-2.0212402-1.5866697-3.0578613-1.7253416-1.0505371-.1164551-1.9216309.1384277-2.5583496.4487305-1.2961426.6618652-1.5795898 1.505615-1.5063477 1.5205076.0925293.0791016.520752-.5837402 1.722168-1.0085447.5883789-.2019043 1.3774414-.3378906 2.2175293-.1726074.8217773.1586914 1.7814941.6884763 2.3508301 1.5083005.2680664.3986816.3383789.9042969.4462891 1.59375.0581055.3391113.1486816.7275391.3369141 1.1020508.1796875.3759766.5578613.8103027.9946289.9802246.8696289.3759766 1.6760254.293457 2.4223633.2878418.7355957-.0197754 1.512207-.0529785 1.9899902.1733398.4462891.1660156.7009277.7368164.8056641 1.4831543.1223145.7504883.0107422 1.2883301-.454834 1.6655273-.4616699.3901367-1.2614746.5825195-2.0759277.6706543-.828125.090332-1.7050781.0791016-2.640625.0983887-3.6525879.0615234-7.1049805.125-10.2932129.2277832-.7717285.0300293-1.5014648.0300293-2.1035156-.1315918-.607666-.1574707-.9802246-.4797363-1.2382813-1.0068359-.5036621-1.0266113-.2736816-2.4160156.4362793-2.8642578.7539063-.4709473 1.9899902-.2260742 3.0026855-.5461426.5180664-.135498 1.010498-.4709473 1.2680664-.8869629.2626953-.4128418.3481445-.815918.4138184-1.152832.1169434-.677002.171875-1.1743164.2695313-1.4943848.0949707-.3242188.1733398-.4975586.1296387-.5268555-.0368652-.0258789-.1975098.0917969-.3928223.4108887-.2009285.3227538-.3522957.8508299-.5446785 1.4741209-.1877441.6347656-.5131836 1.2729492-1.3425293 1.4033203-.4042969.0881348-.8825684.0825195-1.4294434.0827637-.5378418.0112305-1.2038574-.0036621-1.8945313.3713379-.6489258.3798828-1.0395508 1.0595703-1.2041016 1.7595215-.28125.0334473-.5603027.0593262-.8464355.1071777-.9499512.1499023-1.9401855.4199219-2.880127.9199219-.9299316.4799805-1.8100586 1.3100586-2.2299805 2.3901367-.4199217 1.0600586-.5498045 2.0698243-.6599119 3.1298838-.1000977 1.0500488-.1101074 2.1000977-.1101074 3.1601563.0554724 2.9231472-.0340691 5.095026-.1398928 13.1298809.1124756 4.2887001.1326854 6.1510429.2800295 10.5300293.0600586 1.1899414.119873 2.3898926.1899414 3.5900879.0400391.5898438.0200195 1.2199707.1699219 1.9299316.1401367.6999512.5800781 1.4499512 1.1501465 1.8999023.5700684.4699707 1.2600098.75 1.9099121.8901367.6499023.1398926 1.2900391.1699219 1.8798828.1899414 2.3500977.0998535 4.670166.1999512 6.9501953.2900391 8.0199127.2812424 12.1261101.1175346 16.2998047-.2102051l1.5302734-.1499023c.4897461-.0498047 1.0197754-.1000977 1.5698242-.2399902.1037598-.0258789.2128906-.0651855.3208008-.1013184.1923828.1459961.3996582.2714844.609375.3413086.329834.1101074.6398926.1401367.9299316.1601563.5700684.0400391 1.1298828.0400391 1.6999512-.0102539.2900391-.0197754.5700684-.0498047.8598633-.0898438.2602539-.0500488.7001953-.0700684 1.1201172-.4799805.2800293-.2700195.3798828-.6699219.3999023-.9199219.0721092-.6249352-.0167465-1.1680489.0400391-1.8300781.0200195-.3500977.130127-.6601563.2199707-.7399902.0500488-.0300293.0600586-.0600586.1501465-.0600586.0898438-.0100098.2199707-.0100098.3398438.0300293.5300293.1201172 1.0500488.8100586 2 1.3300781.4599609.25 1.170166.3898926 1.7700195.1799316.5800781-.1999512.9399414-.4899902 1.3300781-.7700195.3798828-.2900391.7800293-.6599121 1.0700684-1.1599121.2897949-.5100098.4399414-1.1201172.3200684-1.7600098-.1101074-.6799316-.6601563-1.2399902-1.1000977-1.4899902-.4301758-.2700195-.8601074-.4702148-1.0200195-.6401367-.1799316-.1599121-.2299805-.3598633-.2399902-.4199219.0200195-.0100098.0100098-.0200195.0500488-.0300293.0600586-.0200195.2199707-.0200195.4099121 0 .4001465.0400391.869873.1899414 1.5300293.1398926.6899414-.0598145 1.3100586-.5097656 1.6499023-1 .5200195-.75.6899414-1.619873.6401367-2.4299316-.0500488-.8098145-.2900391-1.619873-.8200684-2.3098145-.5400391-.7001953-1.4199219-1.1601563-2.369873-1.1101074-.5.040039-.8601074.2099609-1.1101074.2700195z"/>
        <path d="m35.1178055 44.4512291c1.802002 1.3217773 4.625 1.2937012 6.6435547-.21875 1.0046387-.7485352 1.7546387-1.8483887 2.0500488-2.9899902.309082-1.142334.2683105-2.2971191.0024414-3.3186035-.2661133-.9973145-.7131348-1.9904785-1.5454102-2.6474609-.8300781-.6374512-1.6911621-.8071289-2.4257813-.9628906-1.545166-.2873535-2.8195801.0231934-3.5888672.3793945-.7790527.3679199-1.0898438.7407227-1.0393066.8110352.0583496.0913086.4660645-.1101074 1.2202148-.2858887.6289063-.1418457 1.5422363-.229248 2.5881348-.0412598-.1064453.170166.092041.7060547.3127441 1.53125.2407227.8833008.4599609 2.123291.2216797 3.4125977-.2402344 1.2775879-.9199219 2.3190918-1.5268555 2.9538574-.3552246.3813477-.6657715.637207-.8618164.8310547-.4770508-.1027832-.9248047-.2768555-1.3049316-.5373535-1.3811035-.9189453-2.013916-2.5510254-2.1057129-3.8427734-.1062012-1.331543.3203125-2.3789063.7375488-3.0061035.4274902-.6298828.7868652-.9169922.7189941-1.0153809-.036377-.0646973-.5131836.0581055-1.1469727.6611328-.6179199.5957031-1.3049316 1.791748-1.3183594 3.3869629-.0173337 1.5449217.5649416 3.5700682 2.3686526 4.8991698zm6.8959961-2.592041c-.2949219-.1628418-.6933594-.175293-1.1567383-.1945801-.1022949-.0009766-.2102051.0043945-.3171387.0097656.1838379-.3945313.3327637-.8242188.4204102-1.2919922.0151367-.0830078.0202637-.1633301.0314941-.2453613.4047508.4041977 1.0735626.5037041 1.5627441.3100586-.1020507.4948731-.2805175.9726563-.5407714 1.4121094zm.3627929-4.204834c.2019997.6248817.2786789 1.122757.2849121 1.6967773-.4685211-.2935219-1.1863327-.3515587-1.6083984-.1086426-.0056152-.4516602-.0612793-.8789063-.1506348-1.2746582.5642357.1696473 1.1648827.0129014 1.4741211-.3134765zm-2.9975586-2.4052734c.081543.0195313.1567383.0251465.239502.0483398.6557617.1923828 1.3920898.4333496 1.8928223.8884277.1564941.1352539.2907715.310791.4147949.5019531-.1716309-.0478516-.3566895-.0791016-.5515137-.0783691-.3220215.0073242-.6245117.0871582-.8466797.2280273-.0842285-.1884766-.1713867-.3669434-.2624512-.5214844-.3259277-.5588378-.6450195-.895996-.8864746-1.0668944zm.4667969 7.5429687c.234375.159668.5668945.2827148 1.0024414.2995605.0217285.0002441.041748-.005127.0634766-.0056152-.0002441 0-.0004883 0-.0004883.0002441-.7436523.5559082-1.625.8486328-2.4897461.9084473.0786133-.0415039.1569824-.0817871.239502-.1323242.3940429-.2355957.8098144-.6032715 1.1848144-1.0703125z"/>
    </g>
</svg>