<svg id="Layer_1" enable-background="new 0 0 512 512" viewBox="0 0 512 512" width="100" height="100"
    xmlns="http://www.w3.org/2000/svg">
    <g>
        <path clip-rule="evenodd" d="m81.97 421.27c43.73 46.03 105.53 74.73 174.03 74.73 66.89 0 127.39-27.37 170.92-71.52v-.02c-26.59-70.2-94.14-120.69-173.1-121.88-77.75 1.17-144.44 50.15-171.85 118.69z" fill="#fbefdb" fill-rule="evenodd"/>
        <ellipse clip-rule="evenodd" cx="253.82" cy="184.13" fill="#fbefdb" fill-rule="evenodd" rx="86.54" ry="86.54" transform="matrix(.971 -.241 .241 .971 -36.901 66.614)"/>
        <path d="m429.24 82.76c-46.27-46.28-107.8-71.76-173.24-71.76s-126.97 25.48-173.24 71.76-71.76 107.8-71.76 173.24 25.48 126.97 71.76 173.24 107.8 71.76 173.24 71.76 126.97-25.48 173.24-71.76 71.76-107.8 71.76-173.24-25.48-126.97-71.76-173.24zm-173.24-61.76c129.58 0 235 105.42 235 235 0 61.41-23.69 117.38-62.39 159.29-13.93-32.68-36.52-60.81-65.69-81.71-32.05-22.96-69.75-35.4-109.02-36-.05 0-.1 0-.15 0-38.66.58-75.87 12.68-107.61 34.99-28.82 20.26-51.4 47.62-65.69 79.48-36.96-41.53-59.45-96.21-59.45-156.05 0-129.58 105.42-235 235-235zm-168.11 399.02c28.31-67.3 93.08-111.31 165.94-112.44 73.19 1.14 139.96 47.42 167.21 115.54-42.47 41.95-100.78 67.88-165.04 67.88-65.83 0-125.41-27.22-168.11-70.98zm165.93-144.35c50.47 0 91.54-41.06 91.54-91.54s-41.06-91.53-91.54-91.53-91.54 41.06-91.54 91.54 41.07 91.53 91.54 91.53zm0-173.07c44.96 0 81.54 36.58 81.54 81.54s-36.58 81.54-81.54 81.54-81.54-36.58-81.54-81.54 36.58-81.54 81.54-81.54z" fill="#00575a"/>
    </g>
</svg>